<svg xmlns="http://www.w3.org/2000/svg" xmlns:xlink="http://www.w3.org/1999/xlink" version="1.1" width="1000" height="1000" viewBox="0 0 1000 1000" xml:space="preserve">
<desc>Created with Fabric.js 3.5.0</desc>
<defs>
</defs>
<rect x="0" y="0" width="100%" height="100%" fill="#ffffff"/>
<g transform="matrix(1 0 0 1 500 423.1666)" style="" id="282332">
		
<path xml:space="preserve" font-family="Lato" font-size="100" font-style="normal" font-weight="bold" style="stroke: none; stroke-width: 0; stroke-dasharray: none; stroke-linecap: butt; stroke-dashoffset: 0; stroke-linejoin: miter; stroke-miterlimit: 4; is-custom-font: none; font-file-url: none; fill: rgb(14,187,147); fill-rule: nonzero; opacity: 1; white-space: pre;" d="M-206.80-40.89L-206.80 20.31L-177.85 20.31L-177.85 31.41L-220.25 31.41L-220.25-40.89L-206.80-40.89ZM-149.95-20.69L-149.95-20.69Q-145.10-20.69-141.03-19.14Q-136.95-17.59-134.00-14.61Q-131.05-11.64-129.40-7.31Q-127.75-2.99-127.75 2.56L-127.75 2.56Q-127.75 3.96-127.88 4.89Q-128.00 5.81-128.33 6.34Q-128.65 6.86-129.20 7.09Q-129.75 7.31-130.60 7.31L-130.60 7.31L-162.30 7.31Q-161.75 15.21-158.05 18.91Q-154.35 22.61-148.25 22.61L-148.25 22.61Q-145.25 22.61-143.08 21.91Q-140.90 21.21-139.28 20.36Q-137.65 19.51-136.43 18.81Q-135.20 18.11-134.05 18.11L-134.05 18.11Q-133.30 18.11-132.75 18.41Q-132.20 18.71-131.80 19.26L-131.80 19.26L-128.20 23.76Q-130.25 26.16-132.80 27.79Q-135.35 29.41-138.13 30.39Q-140.90 31.36-143.78 31.76Q-146.65 32.16-149.35 32.16L-149.35 32.16Q-154.70 32.16-159.30 30.39Q-163.90 28.61-167.30 25.14Q-170.70 21.66-172.65 16.54Q-174.60 11.41-174.60 4.66L-174.60 4.66Q-174.60-0.59-172.90-5.21Q-171.20-9.84-168.03-13.26Q-164.85-16.69-160.28-18.69Q-155.70-20.69-149.95-20.69ZM-149.70-11.84L-149.70-11.84Q-155.10-11.84-158.15-8.79Q-161.20-5.74-162.05-0.14L-162.05-0.14L-138.85-0.14Q-138.85-2.54-139.50-4.66Q-140.15-6.79-141.50-8.39Q-142.85-9.99-144.90-10.91Q-146.95-11.84-149.70-11.84ZM-77.50-0.99L-77.50 31.41L-83.05 31.41Q-84.80 31.41-85.80 30.89Q-86.80 30.36-87.30 28.76L-87.30 28.76L-88.40 25.11Q-90.35 26.86-92.23 28.19Q-94.10 29.51-96.10 30.41Q-98.10 31.31-100.35 31.76Q-102.60 32.21-105.35 32.21L-105.35 32.21Q-108.60 32.21-111.35 31.34Q-114.10 30.46-116.08 28.71Q-118.05 26.96-119.15 24.36Q-120.25 21.76-120.25 18.31L-120.25 18.31Q-120.25 15.41-118.73 12.59Q-117.20 9.76-113.65 7.49Q-110.10 5.21-104.20 3.71Q-98.30 2.21-89.55 2.01L-89.55 2.01L-89.55-0.99Q-89.55-6.14-91.73-8.61Q-93.90-11.09-98.05-11.09L-98.05-11.09Q-101.05-11.09-103.05-10.39Q-105.05-9.69-106.53-8.81Q-108.00-7.94-109.25-7.24Q-110.50-6.54-112.00-6.54L-112.00-6.54Q-113.25-6.54-114.15-7.19Q-115.05-7.84-115.60-8.79L-115.60-8.79L-117.85-12.74Q-109.00-20.84-96.50-20.84L-96.50-20.84Q-92.00-20.84-88.48-19.36Q-84.95-17.89-82.50-15.26Q-80.05-12.64-78.78-8.99Q-77.50-5.34-77.50-0.99L-77.50-0.99ZM-101.50 23.71L-101.50 23.71Q-99.60 23.71-98.00 23.36Q-96.40 23.01-94.98 22.31Q-93.55 21.61-92.23 20.59Q-90.90 19.56-89.55 18.16L-89.55 18.16L-89.55 9.51Q-94.95 9.76-98.58 10.44Q-102.20 11.11-104.40 12.16Q-106.60 13.21-107.53 14.61Q-108.45 16.01-108.45 17.66L-108.45 17.66Q-108.45 20.91-106.53 22.31Q-104.60 23.71-101.50 23.71ZM-53.00 31.41L-65.35 31.41L-65.35-19.89L-58.10-19.89Q-56.20-19.89-55.45-19.19Q-54.70-18.49-54.45-16.79L-54.45-16.79L-53.70-10.59Q-50.95-15.34-47.25-18.09Q-43.55-20.84-38.95-20.84L-38.95-20.84Q-35.15-20.84-32.65-19.09L-32.65-19.09L-34.25-9.84Q-34.40-8.94-34.90-8.56Q-35.40-8.19-36.25-8.19L-36.25-8.19Q-37.00-8.19-38.30-8.54Q-39.60-8.89-41.75-8.89L-41.75-8.89Q-45.60-8.89-48.35-6.76Q-51.10-4.64-53.00-0.54L-53.00-0.54L-53.00 31.41ZM-12.15 31.41L-24.50 31.41L-24.50-19.89L-16.95-19.89Q-14.55-19.89-13.80-17.64L-13.80-17.64L-12.95-13.59Q-11.40-15.19-9.68-16.49Q-7.95-17.79-6.03-18.74Q-4.10-19.69-1.90-20.19Q0.30-20.69 2.90-20.69L2.90-20.69Q7.10-20.69 10.35-19.26Q13.60-17.84 15.77-15.26Q17.95-12.69 19.07-9.11Q20.20-5.54 20.20-1.24L20.20-1.24L20.20 31.41L7.85 31.41L7.85-1.24Q7.85-5.94 5.67-8.51Q3.50-11.09-0.85-11.09L-0.85-11.09Q-4.05-11.09-6.85-9.64Q-9.65-8.19-12.15-5.69L-12.15-5.69L-12.15 31.41ZM61.65 31.41L45.40-19.89L55.20-19.89Q56.60-19.89 57.55-19.24Q58.50-18.59 58.75-17.59L58.75-17.59L66.10 9.81Q66.70 12.06 67.07 14.21Q67.45 16.36 67.80 18.51L67.80 18.51Q68.35 16.36 68.97 14.21Q69.60 12.06 70.30 9.81L70.30 9.81L78.80-17.69Q79.10-18.69 80.00-19.34Q80.90-19.99 82.10-19.99L82.10-19.99L87.55-19.99Q88.90-19.99 89.80-19.34Q90.70-18.69 91.00-17.69L91.00-17.69L99.40 10.31Q100.05 12.46 100.57 14.49Q101.10 16.51 101.60 18.56L101.60 18.56Q101.95 16.41 102.37 14.26Q102.80 12.11 103.45 9.81L103.45 9.81L111.05-17.59Q111.30-18.59 112.25-19.24Q113.20-19.89 114.45-19.89L114.45-19.89L123.80-19.89L107.55 31.41L97.60 31.41Q96.00 31.41 95.30 29.21L95.30 29.21L86.05-0.44Q85.60-1.89 85.22-3.36Q84.85-4.84 84.60-6.29L84.60-6.29Q84.30-4.79 83.95-3.31Q83.60-1.84 83.15-0.34L83.15-0.34L73.80 29.21Q73.10 31.41 71.10 31.41L71.10 31.41L61.65 31.41ZM131.55-19.89L143.90-19.89L143.90 31.41L131.55 31.41L131.55-19.89ZM145.75-34.84L145.75-34.84Q145.75-33.24 145.10-31.84Q144.45-30.44 143.37-29.39Q142.30-28.34 140.85-27.71Q139.40-27.09 137.75-27.09L137.75-27.09Q136.15-27.09 134.72-27.71Q133.30-28.34 132.25-29.39Q131.20-30.44 130.57-31.84Q129.95-33.24 129.95-34.84L129.95-34.84Q129.95-36.49 130.57-37.94Q131.20-39.39 132.25-40.44Q133.30-41.49 134.72-42.11Q136.15-42.74 137.75-42.74L137.75-42.74Q139.40-42.74 140.85-42.11Q142.30-41.49 143.37-40.44Q144.45-39.39 145.10-37.94Q145.75-36.49 145.75-34.84ZM174.70 32.21L174.70 32.21Q168.05 32.21 164.45 28.44Q160.85 24.66 160.85 18.01L160.85 18.01L160.85-10.64L155.65-10.64Q154.65-10.64 153.92-11.29Q153.20-11.94 153.20-13.24L153.20-13.24L153.20-18.14L161.45-19.49L164.05-33.49Q164.25-34.49 164.97-35.04Q165.70-35.59 166.80-35.59L166.80-35.59L173.20-35.59L173.20-19.44L186.70-19.44L186.70-10.64L173.20-10.64L173.20 17.16Q173.20 19.56 174.40 20.91Q175.60 22.26 177.60 22.26L177.60 22.26Q178.75 22.26 179.52 21.99Q180.30 21.71 180.87 21.41Q181.45 21.11 181.90 20.84Q182.35 20.56 182.80 20.56L182.80 20.56Q183.35 20.56 183.70 20.84Q184.05 21.11 184.45 21.66L184.45 21.66L188.15 27.66Q185.45 29.91 181.95 31.06Q178.45 32.21 174.70 32.21ZM208.90 31.41L196.55 31.41L196.55-42.89L208.90-42.89L208.90-14.34Q211.90-17.19 215.50-18.94Q219.10-20.69 223.95-20.69L223.95-20.69Q228.15-20.69 231.40-19.26Q234.65-17.84 236.82-15.26Q239.00-12.69 240.12-9.11Q241.25-5.54 241.25-1.24L241.25-1.24L241.25 31.41L228.90 31.41L228.90-1.24Q228.90-5.94 226.72-8.51Q224.55-11.09 220.20-11.09L220.20-11.09Q217.00-11.09 214.20-9.64Q211.40-8.19 208.90-5.69L208.90-5.69L208.90 31.41Z"/></g>
<g transform="matrix(1 0 0 1 500 554.3522)" style="" id="115336">
		
<path xml:space="preserve" font-family="Lato" font-size="118" font-style="normal" font-weight="bold" style="stroke: none; stroke-width: 0; stroke-dasharray: none; stroke-linecap: butt; stroke-dashoffset: 0; stroke-linejoin: miter; stroke-miterlimit: 4; is-custom-font: none; font-file-url: none; fill: rgb(32,31,31); fill-opacity: 0.68; fill-rule: nonzero; opacity: 1; white-space: pre;" d="M-143.91-1.16L-143.91 37.07L-150.46 37.07Q-152.52 37.07-153.70 36.45Q-154.88 35.83-155.47 33.94L-155.47 33.94L-156.77 29.63Q-159.07 31.70-161.29 33.26Q-163.50 34.83-165.86 35.89Q-168.22 36.95-170.87 37.48Q-173.53 38.01-176.77 38.01L-176.77 38.01Q-180.61 38.01-183.85 36.98Q-187.10 35.95-189.43 33.88Q-191.76 31.82-193.06 28.75Q-194.35 25.68-194.35 21.61L-194.35 21.61Q-194.35 18.19-192.56 14.86Q-190.76 11.52-186.57 8.84Q-182.38 6.15-175.42 4.38Q-168.45 2.61-158.13 2.38L-158.13 2.38L-158.13-1.16Q-158.13-7.24-160.70-10.16Q-163.26-13.08-168.16-13.08L-168.16-13.08Q-171.70-13.08-174.06-12.26Q-176.42-11.43-178.16-10.40Q-179.90-9.36-181.38-8.54Q-182.85-7.71-184.62-7.71L-184.62-7.71Q-186.09-7.71-187.16-8.48Q-188.22-9.25-188.87-10.37L-188.87-10.37L-191.52-15.03Q-181.08-24.59-166.33-24.59L-166.33-24.59Q-161.02-24.59-156.86-22.85Q-152.70-21.11-149.81-18.01Q-146.92-14.91-145.41-10.60Q-143.91-6.30-143.91-1.16L-143.91-1.16ZM-172.23 27.98L-172.23 27.98Q-169.99 27.98-168.10 27.57Q-166.21 27.16-164.53 26.33Q-162.85 25.50-161.29 24.30Q-159.72 23.09-158.13 21.43L-158.13 21.43L-158.13 11.23Q-164.50 11.52-168.78 12.32Q-173.06 13.11-175.65 14.35Q-178.25 15.59-179.34 17.24Q-180.43 18.90-180.43 20.84L-180.43 20.84Q-180.43 24.68-178.16 26.33Q-175.89 27.98-172.23 27.98Z"/><path xml:space="preserve" font-family="Lato" font-size="118" font-style="normal" font-weight="bold" style="stroke: none; stroke-width: 0; stroke-dasharray: none; stroke-linecap: butt; stroke-dashoffset: 0; stroke-linejoin: miter; stroke-miterlimit: 4; is-custom-font: none; font-file-url: none; fill: rgb(32,31,31); fill-opacity: 0.68; fill-rule: nonzero; opacity: 1; white-space: pre;" d="M-57.95 37.07L-72.52 37.07L-72.52-50.61L-57.95-50.61L-57.95-16.92Q-54.41-20.28-50.16-22.34Q-45.91-24.41-40.19-24.41L-40.19-24.41Q-35.23-24.41-31.40-22.73Q-27.56-21.05-25.00-18.01Q-22.43-14.97-21.10-10.75Q-19.77-6.53-19.77-1.46L-19.77-1.46L-19.77 37.07L-34.35 37.07L-34.35-1.46Q-34.35-7.00-36.91-10.04Q-39.48-13.08-44.61-13.08L-44.61-13.08Q-48.39-13.08-51.69-11.37Q-55.00-9.66-57.95-6.71L-57.95-6.71L-57.95 37.07Z"/><path xml:space="preserve" font-family="Lato" font-size="118" font-style="normal" font-weight="bold" style="stroke: none; stroke-width: 0; stroke-dasharray: none; stroke-linecap: butt; stroke-dashoffset: 0; stroke-linejoin: miter; stroke-miterlimit: 4; is-custom-font: none; font-file-url: none; fill: rgb(32,31,31); fill-opacity: 0.68; fill-rule: nonzero; opacity: 1; white-space: pre;" d="M50.46-23.47L65.03-23.47L65.03 37.07L50.46 37.07L50.46-23.47ZM67.21-41.11L67.21-41.11Q67.21-39.22 66.44-37.57Q65.68-35.91 64.41-34.68Q63.14-33.44 61.43-32.70Q59.72-31.96 57.77-31.96L57.77-31.96Q55.88-31.96 54.20-32.70Q52.52-33.44 51.28-34.68Q50.04-35.91 49.31-37.57Q48.57-39.22 48.57-41.11L48.57-41.11Q48.57-43.05 49.31-44.76Q50.04-46.48 51.28-47.71Q52.52-48.95 54.20-49.69Q55.88-50.43 57.77-50.43L57.77-50.43Q59.72-50.43 61.43-49.69Q63.14-48.95 64.41-47.71Q65.68-46.48 66.44-44.76Q67.21-43.05 67.21-41.11Z"/><path xml:space="preserve" font-family="Lato" font-size="118" font-style="normal" font-weight="bold" style="stroke: none; stroke-width: 0; stroke-dasharray: none; stroke-linecap: butt; stroke-dashoffset: 0; stroke-linejoin: miter; stroke-miterlimit: 4; is-custom-font: none; font-file-url: none; fill: rgb(32,31,31); fill-opacity: 0.68; fill-rule: nonzero; opacity: 1; white-space: pre;" d="M155.87 37.07L141.30 37.07L141.30-23.47L150.21-23.47Q153.04-23.47 153.92-20.81L153.92-20.81L154.93-16.03Q156.75-17.92 158.79-19.45Q160.83-20.99 163.10-22.11Q165.37-23.23 167.96-23.82Q170.56-24.41 173.63-24.41L173.63-24.41Q178.58-24.41 182.42-22.73Q186.25-21.05 188.82-18.01Q191.39-14.97 192.71-10.75Q194.04-6.53 194.04-1.46L194.04-1.46L194.04 37.07L179.47 37.07L179.47-1.46Q179.47-7.00 176.90-10.04Q174.34-13.08 169.20-13.08L169.20-13.08Q165.43-13.08 162.12-11.37Q158.82-9.66 155.87-6.71L155.87-6.71L155.87 37.07Z"/></g>
<g transform="matrix(1 0 0 1 -579.9133 499.5)" style="" id="658955">
		
<path xml:space="preserve" font-family="Lato" font-size="220" font-style="normal" font-weight="bold" style="stroke: none; stroke-width: 0; stroke-dasharray: none; stroke-linecap: butt; stroke-dashoffset: 0; stroke-linejoin: miter; stroke-miterlimit: 4; is-custom-font: none; font-file-url: none; fill: rgb(15,175,81); fill-rule: nonzero; opacity: 1; white-space: pre;" d="M-51.59-89.95L-51.59-89.95Q-49.61-89.95-48.29-89.78Q-46.97-89.62-45.92-89.12Q-44.88-88.63-43.89-87.69Q-42.90-86.76-41.69-85.22L-41.69-85.22L41.80 21.15Q41.36 17.30 41.20 13.62Q41.03 9.93 41.03 6.74L41.03 6.74L41.03-89.95L67.10-89.95L67.10 69.11L51.81 69.11Q48.29 69.11 45.98 68.01Q43.67 66.91 41.47 64.05L41.47 64.05L-41.69-41.88Q-41.36-38.36-41.19-34.89Q-41.03-31.43-41.03-28.57L-41.03-28.57L-41.03 69.11L-67.10 69.11L-67.10-89.95L-51.59-89.95Z"/></g>
<g transform="matrix(1 0 0 1 -86.8566 450.8044)" style="" id="264800">
		
<path xml:space="preserve" font-family="Lato" font-size="144" font-style="normal" font-weight="bold" style="stroke: none; stroke-width: 0; stroke-dasharray: none; stroke-linecap: butt; stroke-dashoffset: 0; stroke-linejoin: miter; stroke-miterlimit: 4; is-custom-font: none; font-file-url: none; fill: rgb(0,0,0); fill-rule: nonzero; opacity: 1; white-space: pre;" d="M-33.77-58.88L-33.77-58.88Q-32.47-58.88-31.61-58.77Q-30.74-58.66-30.06-58.34Q-29.38-58.01-28.73-57.40Q-28.08-56.79-27.29-55.78L-27.29-55.78L27.36 13.84Q27.07 11.32 26.96 8.91Q26.86 6.50 26.86 4.41L26.86 4.41L26.86-58.88L43.92-58.88L43.92 45.24L33.91 45.24Q31.61 45.24 30.10 44.52Q28.58 43.80 27.14 41.92L27.14 41.92L-27.29-27.41Q-27.07-25.11-26.96-22.84Q-26.86-20.57-26.86-18.70L-26.86-18.70L-26.86 45.24L-43.92 45.24L-43.92-58.88L-33.77-58.88Z"/></g>
<g transform="matrix(1 0 0 1 156.4289 500)" style="" id="728751">
		
<path xml:space="preserve" font-family="Lato" font-size="281" font-style="normal" font-weight="bold" style="stroke: none; stroke-width: 0; stroke-dasharray: none; stroke-linecap: butt; stroke-dashoffset: 0; stroke-linejoin: miter; stroke-miterlimit: 4; is-custom-font: none; font-file-url: none; fill: rgb(14,187,147); fill-rule: nonzero; opacity: 1; white-space: pre;" d="M-65.89-114.89L-65.89-114.89Q-63.37-114.89-61.68-114.68Q-59.99-114.47-58.66-113.84Q-57.32-113.20-56.06-112.01Q-54.80-110.82-53.25-108.85L-53.25-108.85L53.39 27.02Q52.83 22.10 52.62 17.39Q52.41 12.68 52.41 8.61L52.41 8.61L52.41-114.89L85.71-114.89L85.71 88.27L66.18 88.27Q61.68 88.27 58.73 86.87Q55.78 85.46 52.97 81.81L52.97 81.81L-53.25-53.49Q-52.83-49.00-52.62-44.57Q-52.41-40.14-52.41-36.49L-52.41-36.49L-52.41 88.27L-85.70 88.27L-85.70-114.89L-65.89-114.89Z"/></g>
<g transform="matrix(1 0 0 1 763.8121 804.8995)" style="" id="34887">
		
<path xml:space="preserve" font-family="Mrs Saint Delafield" font-size="72" style="stroke: none; stroke-width: 0; stroke-dasharray: none; stroke-linecap: butt; stroke-dashoffset: 0; stroke-linejoin: miter; stroke-miterlimit: 4; is-custom-font: none; font-file-url: none; fill: rgb(0,0,0); fill-rule: nonzero; opacity: 1; white-space: pre;" d="M-156.56-4.67L-156.56-4.67Q-157.07-4.67-157.32-5.10Q-157.57-5.53-157.64-5.61L-157.64-5.61Q-158.44-4.81-159.84-3.59Q-161.24-2.37-164.84-0.35Q-168.44 1.67-171.25 1.67L-171.25 1.67Q-175.93 1.67-175.93-1.93L-175.93-1.93Q-175.93-5.82-170.96-12.01Q-166.00-18.21-158.62-23.07Q-151.24-27.93-145.40-27.93L-145.40-27.93Q-142.02-27.93-140.26-25.91Q-138.49-23.89-138.49-20.69Q-138.49-17.49-141.30-11.51L-141.30-11.51Q-130.07-19.86-125.68-19.86L-125.68-19.86Q-124.81-19.86-124.24-19.36Q-123.66-18.85-123.66-17.99L-123.66-17.99Q-123.66-16.55-129.53-8.70Q-135.40-0.85-141.30 7.71Q-147.20 16.28-147.20 19.52L-147.20 19.52Q-147.20 21.54-144.97 21.54L-144.97 21.54Q-141.59 21.54-135.40 15.35L-135.40 15.35Q-134.46 14.41-133.81 14.41L-133.81 14.41Q-133.38 14.41-133.38 15.02Q-133.38 15.63-135.68 17.69Q-137.99 19.74-141.41 21.68Q-144.83 23.63-147.35 23.63L-147.35 23.63Q-150.73 23.63-150.73 20.78Q-150.73 17.94-147.17 12.00Q-143.60 6.06-139.28 0.44L-139.28 0.44Q-127.84-14.32-127.84-16.77L-127.84-16.77Q-127.84-17.20-128.34-17.20L-128.34-17.20Q-132.44-17.20-142.31-9.42L-142.31-9.42Q-147.85 1.45-157.39 13.19Q-166.93 24.92-170.24 24.92L-170.24 24.92Q-172.04 24.92-172.04 23.41L-172.04 23.41Q-172.04 18.73-163.98 9.48Q-155.92 0.23-145.40-8.27L-145.40-8.27Q-141.44-16.19-141.44-20.65L-141.44-20.65Q-141.44-26.13-147.28-26.13L-147.28-26.13Q-151.74-26.13-158.04-21.77Q-164.34-17.41-168.80-11.87Q-173.27-6.33-173.27-3.09L-173.27-3.09Q-173.27-0.35-169.67-0.35L-169.67-0.35Q-167.22-0.35-162.68-3.30Q-158.15-6.25-157.50-7.41L-157.50-7.41Q-154.40-12.88-153.97-13.45L-153.97-13.45Q-152.46-15.83-151.52-15.83L-151.52-15.83Q-151.16-15.83-151.09-15.33Q-151.02-14.82-151.20-14.35Q-151.38-13.89-151.81-13.20Q-152.24-12.52-152.60-11.98Q-152.96-11.44-153.58-10.57Q-154.19-9.71-154.66-9.06Q-155.12-8.41-155.41-7.84L-155.41-7.84Q-155.84-6.97-155.84-5.82Q-155.84-4.67-156.56-4.67ZM-169.31 23.19L-169.31 23.19Q-167.36 23.12-159.62 13.51Q-151.88 3.90-146.70-5.75L-146.70-5.75Q-155.77 2.03-162.68 10.38Q-169.60 18.73-169.60 22.69L-169.60 22.69Q-169.60 23.19-169.31 23.19Z"/><path xml:space="preserve" font-family="Mrs Saint Delafield" font-size="72" style="stroke: none; stroke-width: 0; stroke-dasharray: none; stroke-linecap: butt; stroke-dashoffset: 0; stroke-linejoin: miter; stroke-miterlimit: 4; is-custom-font: none; font-file-url: none; fill: rgb(0,0,0); fill-rule: nonzero; opacity: 1; white-space: pre;" d="M-114.30 13.98L-114.30 13.98Q-114.73 13.98-114.73 13.65Q-114.73 13.33-114.23 12.90L-114.23 12.90Q-111.85 10.95-111.85 9.37L-111.85 9.37Q-111.85 8.36-113.65 8.22L-113.65 8.22Q-116.89 8.29-121.39 12.90Q-125.89 17.51-125.89 19.81L-125.89 19.81Q-125.89 20.60-124.99 20.60Q-124.09 20.60-122.58 19.38L-122.58 19.38Q-121.21 18.51-117.47 15.06L-117.47 15.06Q-116.60 14.19-115.81 14.19L-115.81 14.19Q-114.80 14.19-114.80 15.13L-114.80 15.13Q-114.80 15.49-115.02 15.71Q-115.24 15.92-115.81 16.61Q-116.39 17.29-116.82 17.87L-116.82 17.87Q-118.12 19.74-118.12 20.31L-118.12 20.31Q-118.12 21.75-116.96 21.75L-116.96 21.75Q-115.45 21.75-111.28 18.98Q-107.10 16.21-103.64 13.40L-103.64 13.40L-100.19 10.67Q-99.68 10.31-99.25 10.31Q-98.82 10.31-98.82 10.81L-98.82 10.81L-98.82 10.95Q-104.36 15.63-110.52 19.74Q-116.68 23.84-118.62 23.84L-118.62 23.84Q-120.92 23.84-120.92 21.39L-120.92 21.39Q-120.92 20.82-120.71 20.31Q-120.49 19.81-120.49 19.59Q-120.49 19.38-120.64 19.31L-120.64 19.31Q-120.85 19.31-123.41 21.25Q-125.96 23.19-127.87 23.19Q-129.78 23.19-129.78 21.18Q-129.78 19.16-127.08 15.74Q-124.38 12.32-119.84 9.51Q-115.31 6.71-110.99 6.71L-110.99 6.71Q-109.98 6.71-109.30 7.21Q-108.61 7.71-108.61 8.76Q-108.61 9.80-110.70 11.89Q-112.79 13.98-114.30 13.98Z"/><path xml:space="preserve" font-family="Mrs Saint Delafield" font-size="72" style="stroke: none; stroke-width: 0; stroke-dasharray: none; stroke-linecap: butt; stroke-dashoffset: 0; stroke-linejoin: miter; stroke-miterlimit: 4; is-custom-font: none; font-file-url: none; fill: rgb(0,0,0); fill-rule: nonzero; opacity: 1; white-space: pre;" d="M-74.77 11.89L-73.19 10.59Q-72.68 10.23-72.25 10.23Q-71.82 10.23-71.82 10.67L-71.82 10.67L-71.82 10.88Q-77.51 15.63-82.98 19.38L-82.98 19.38Q-88.45 23.55-90.58 23.55Q-92.70 23.55-92.70 21.83L-92.70 21.83Q-92.70 19.95-89.96 15.49Q-87.23 11.03-87.23 10.70Q-87.23 10.38-87.52 10.38L-87.52 10.38Q-88.45 10.38-93.24 14.52Q-98.03 18.66-101.63 22.19L-101.63 22.19Q-103.00 23.41-103.54 23.41Q-104.08 23.41-104.08 22.62Q-104.08 21.83-103.14 20.60L-103.14 20.60L-78.01-17.70Q-77.22-18.93-75.89-18.93Q-74.56-18.93-74.56-18.06L-74.56-18.06Q-74.56-17.56-74.95-16.98Q-75.35-16.41-79.81-10.11Q-84.28-3.81-84.96-2.65Q-85.64-1.50-91.22 6.85Q-96.80 15.20-97.13 15.67Q-97.45 16.14-97.45 16.43Q-97.45 16.71-97.20 16.71Q-96.95 16.71-96.88 16.64L-96.88 16.64Q-94.57 14.34-90.58 11.28Q-86.58 8.22-85.07 8.22L-85.07 8.22Q-84.49 8.22-84.06 8.61Q-83.63 9.01-83.63 9.91Q-83.63 10.81-86.44 14.81Q-89.24 18.80-89.24 19.99Q-89.24 21.18-88.49 21.18Q-87.73 21.18-84.71 19.16L-84.71 19.16Q-79.31 15.56-74.77 11.89L-74.77 11.89Z"/><path xml:space="preserve" font-family="Mrs Saint Delafield" font-size="72" style="stroke: none; stroke-width: 0; stroke-dasharray: none; stroke-linecap: butt; stroke-dashoffset: 0; stroke-linejoin: miter; stroke-miterlimit: 4; is-custom-font: none; font-file-url: none; fill: rgb(0,0,0); fill-rule: nonzero; opacity: 1; white-space: pre;" d="M-61.92 0.87Q-61.24 0.87-60.84 1.31Q-60.44 1.74-60.44 2.53Q-60.44 3.32-61.52 4.55Q-62.60 5.77-63.40 5.77Q-64.19 5.77-64.55 5.30Q-64.91 4.83-64.91 4.22Q-64.91 3.61-63.76 2.24Q-62.60 0.87-61.92 0.87ZM-57.56 11.89L-55.98 10.59Q-55.40 10.23-55.08 10.23Q-54.76 10.23-54.76 10.67L-54.76 10.67L-54.76 10.88Q-54.47 10.88-58.61 14.05Q-62.75 17.22-67.46 20.39Q-72.18 23.55-73.40 23.55L-73.40 23.55Q-75.49 23.55-75.49 21.83L-75.49 21.83Q-75.49 19.74-71.89 13.94Q-68.29 8.15-66.64 8.15L-66.64 8.15Q-65.41 8.15-65.41 9.08Q-65.41 10.02-68.72 14.19Q-72.04 18.37-72.04 20.17L-72.04 20.17Q-72.04 21.18-71.28 21.18Q-70.52 21.18-67.50 19.16L-67.50 19.16Q-62.10 15.56-57.56 11.89L-57.56 11.89Z"/><path xml:space="preserve" font-family="Mrs Saint Delafield" font-size="72" style="stroke: none; stroke-width: 0; stroke-dasharray: none; stroke-linecap: butt; stroke-dashoffset: 0; stroke-linejoin: miter; stroke-miterlimit: 4; is-custom-font: none; font-file-url: none; fill: rgb(0,0,0); fill-rule: nonzero; opacity: 1; white-space: pre;" d="M-23.29 10.67L-23.29 10.88Q-38.48 23.55-42.08 23.55L-42.08 23.55Q-44.17 23.55-44.17 21.83Q-44.17 20.10-42.62 17.72Q-41.08 15.35-39.53 13.51Q-37.98 11.67-37.98 11.31Q-37.98 10.95-38.20 10.95L-38.20 10.95Q-44.89 15.42-46.15 16.43Q-47.41 17.43-50.26 19.74Q-53.10 22.04-53.96 22.62Q-54.83 23.19-55.84 23.19L-55.84 23.19Q-56.84 23.19-56.84 22.33L-56.84 22.33Q-56.84 21.32-52.81 15.99L-52.81 15.99Q-48.92 10.67-48.92 10.02L-48.92 10.02Q-48.92 9.87-49.18 9.87Q-49.43 9.87-55.40 14.27L-55.40 14.27L-55.69 13.19Q-50.58 9.08-48.78 7.93Q-46.98 6.78-45.86 6.78Q-44.75 6.78-44.75 7.86L-44.75 7.86Q-44.75 8.58-48.82 13.73Q-52.88 18.87-52.88 19.27Q-52.88 19.67-52.63 19.67Q-52.38 19.67-44.42 13.87Q-36.47 8.07-34.74 8.07L-34.74 8.07Q-34.24 8.07-33.77 8.47Q-33.30 8.87-33.30 9.23L-33.30 9.23Q-33.30 10.09-37.12 14.95Q-40.93 19.81-40.93 20.46Q-40.93 21.11-40.03 21.11Q-39.13 21.11-36.18 19.16L-36.18 19.16Q-30.78 15.63-26.24 11.89L-26.24 11.89L-24.66 10.59Q-24.16 10.23-23.72 10.23Q-23.29 10.23-23.29 10.67L-23.29 10.67Z"/><path xml:space="preserve" font-family="Mrs Saint Delafield" font-size="72" style="stroke: none; stroke-width: 0; stroke-dasharray: none; stroke-linecap: butt; stroke-dashoffset: 0; stroke-linejoin: miter; stroke-miterlimit: 4; is-custom-font: none; font-file-url: none; fill: rgb(0,0,0); fill-rule: nonzero; opacity: 1; white-space: pre;" d=""/><path xml:space="preserve" font-family="Mrs Saint Delafield" font-size="72" style="stroke: none; stroke-width: 0; stroke-dasharray: none; stroke-linecap: butt; stroke-dashoffset: 0; stroke-linejoin: miter; stroke-miterlimit: 4; is-custom-font: none; font-file-url: none; fill: rgb(0,0,0); fill-rule: nonzero; opacity: 1; white-space: pre;" d="M35.68-7.91L35.68-7.91L25.38-8.41Q19.04-8.41 12.78-7.91L12.78-7.91L13.14-6.47Q13.14-5.68 8.46-0.46Q3.78 4.76-0.90 10.92Q-5.58 17.07-5.58 20.03L-5.58 20.03Q-5.58 21.18-4.75 21.18Q-3.92 21.18-0.97 19.16L-0.97 19.16Q4.50 15.56 9.04 11.89L9.04 11.89L10.62 10.59Q11.12 10.23 11.48 10.23Q11.84 10.23 11.84 10.67L11.84 10.67L11.84 10.88Q12.13 10.88 7.99 14.05Q3.85 17.22-0.86 20.39Q-5.58 23.55-6.80 23.55L-6.80 23.55Q-8.89 23.55-8.89 21.68L-8.89 21.68Q-8.89 18.95-5.83 14.12Q-2.77 9.30 0.86 5.01Q4.50 0.73 7.78-3.09Q11.05-6.90 11.34-7.77L11.34-7.77Q3.42-7.05-0.83-6.04L-0.83-6.04L-2.27-5.75Q-2.84-5.68-2.84-4.67L-2.84-4.67Q-2.84-4.24-3.85-4.24Q-4.86-4.24-6.34-4.71Q-7.81-5.17-7.81-6.04Q-7.81-6.90-6.37-7.19L-6.37-7.19Q4.28-9.06 8.75-9.46Q13.21-9.85 14.69-9.96Q16.16-10.07 19.30-10.14Q22.43-10.21 23.51-10.21L23.51-10.21Q26.75-10.36 31.10-10.36Q35.46-10.36 36.40-10.00Q37.33-9.64 37.33-8.63L37.33-8.63Q37.33-7.91 35.68-7.91Z"/><path xml:space="preserve" font-family="Mrs Saint Delafield" font-size="72" style="stroke: none; stroke-width: 0; stroke-dasharray: none; stroke-linecap: butt; stroke-dashoffset: 0; stroke-linejoin: miter; stroke-miterlimit: 4; is-custom-font: none; font-file-url: none; fill: rgb(0,0,0); fill-rule: nonzero; opacity: 1; white-space: pre;" d="M35.82 11.89L37.40 10.59Q37.91 10.23 38.34 10.23Q38.77 10.23 38.77 10.67L38.77 10.67L38.77 10.88Q33.08 15.63 27.61 19.38L27.61 19.38Q22.14 23.55 20.02 23.55Q17.89 23.55 17.89 21.83L17.89 21.83Q17.89 19.95 20.63 15.49Q23.36 11.03 23.36 10.70Q23.36 10.38 23.08 10.38L23.08 10.38Q22.14 10.38 17.35 14.52Q12.56 18.66 8.96 22.19L8.96 22.19Q7.60 23.41 7.06 23.41Q6.52 23.41 6.52 22.62Q6.52 21.83 7.45 20.60L7.45 20.60L32.58-17.70Q33.37-18.93 34.70-18.93Q36.04-18.93 36.04-18.06L36.04-18.06Q36.04-17.56 35.64-16.98Q35.24-16.41 30.78-10.11Q26.32-3.81 25.63-2.65Q24.95-1.50 19.37 6.85Q13.79 15.20 13.46 15.67Q13.14 16.14 13.14 16.43Q13.14 16.71 13.39 16.71Q13.64 16.71 13.72 16.64L13.72 16.64Q16.02 14.34 20.02 11.28Q24.01 8.22 25.52 8.22L25.52 8.22Q26.10 8.22 26.53 8.61Q26.96 9.01 26.96 9.91Q26.96 10.81 24.16 14.81Q21.35 18.80 21.35 19.99Q21.35 21.18 22.10 21.18Q22.86 21.18 25.88 19.16L25.88 19.16Q31.28 15.56 35.82 11.89L35.82 11.89Z"/><path xml:space="preserve" font-family="Mrs Saint Delafield" font-size="72" style="stroke: none; stroke-width: 0; stroke-dasharray: none; stroke-linecap: butt; stroke-dashoffset: 0; stroke-linejoin: miter; stroke-miterlimit: 4; is-custom-font: none; font-file-url: none; fill: rgb(0,0,0); fill-rule: nonzero; opacity: 1; white-space: pre;" d="M57.64 12.18L59.44 10.67Q59.94 10.31 60.37 10.31Q60.80 10.31 60.80 10.81L60.80 10.81L60.80 10.95Q53.32 17.15 48.35 20.24Q43.38 23.34 39.35 23.34L39.35 23.34Q36.11 23.34 36.11 20.17L36.11 20.17Q36.11 15.49 40.86 10.56Q45.61 5.63 48.85 5.63L48.85 5.63Q50.65 5.63 50.65 7.64L50.65 7.64Q50.29 11.60 39.28 18.30L39.28 18.30L39.28 19.02Q39.28 21.39 41.76 21.39Q44.24 21.39 47.12 19.74L47.12 19.74Q52.74 16.43 57.64 12.18L57.64 12.18ZM46.98 7.86L46.98 7.86Q45.40 7.86 42.91 10.52Q40.43 13.19 39.56 16.57L39.56 16.57Q43.02 14.48 45.40 12.14Q47.77 9.80 47.77 8.83Q47.77 7.86 46.98 7.86Z"/><path xml:space="preserve" font-family="Mrs Saint Delafield" font-size="72" style="stroke: none; stroke-width: 0; stroke-dasharray: none; stroke-linecap: butt; stroke-dashoffset: 0; stroke-linejoin: miter; stroke-miterlimit: 4; is-custom-font: none; font-file-url: none; fill: rgb(0,0,0); fill-rule: nonzero; opacity: 1; white-space: pre;" d=""/><path xml:space="preserve" font-family="Mrs Saint Delafield" font-size="72" style="stroke: none; stroke-width: 0; stroke-dasharray: none; stroke-linecap: butt; stroke-dashoffset: 0; stroke-linejoin: miter; stroke-miterlimit: 4; is-custom-font: none; font-file-url: none; fill: rgb(0,0,0); fill-rule: nonzero; opacity: 1; white-space: pre;" d="M96.73 12.11L98.53 10.67Q99.11 10.31 99.50 10.31Q99.90 10.31 99.90 10.81L99.90 10.81L99.90 10.95Q94.21 15.99 88.16 19.81Q82.12 23.63 78.08 23.63L78.08 23.63Q74.92 23.63 74.92 19.85Q74.92 16.07 79.49 11.60Q84.06 7.14 89.39 7.14L89.39 7.14Q90.97 7.28 91.37 7.64Q91.76 8.00 91.76 8.65Q91.76 9.30 90.43 10.99Q89.10 12.68 88.02 12.68L88.02 12.68Q86.80 12.47 86.80 11.82L86.80 11.82Q86.80 11.53 87.44 10.88L87.44 10.88Q88.67 9.80 88.67 9.30Q88.67 8.79 87.88 8.79L87.88 8.79Q85.36 8.87 81.54 12.93Q77.72 17.00 77.72 19.67L77.72 19.67Q77.72 21.68 80.35 21.68Q82.98 21.68 86.00 19.81L86.00 19.81Q91.33 16.57 96.73 12.11L96.73 12.11Z"/><path xml:space="preserve" font-family="Mrs Saint Delafield" font-size="72" style="stroke: none; stroke-width: 0; stroke-dasharray: none; stroke-linecap: butt; stroke-dashoffset: 0; stroke-linejoin: miter; stroke-miterlimit: 4; is-custom-font: none; font-file-url: none; fill: rgb(0,0,0); fill-rule: nonzero; opacity: 1; white-space: pre;" d="M107.82 16.43L107.82 16.43Q111.85 16.43 117.47 11.89L117.47 11.89L118.69 12.25Q111.64 18.15 106.52 18.15L106.52 18.15Q105.95 18.15 105.66 18.08L105.66 18.08Q103.72 20.46 101.41 21.93Q99.11 23.41 97.38 23.41L97.38 23.41Q94.64 23.41 94.64 20.35Q94.64 17.29 99.76 12.18L99.76 12.18Q98.89 10.09 98.89 7.79Q98.89 5.48 100.55 4.04Q102.20 2.60 104.40 2.60Q106.60 2.60 108.11 4.04Q109.62 5.48 109.62 8.15L109.62 8.15Q109.62 12.25 106.96 16.35L106.96 16.35Q107.24 16.43 107.82 16.43ZM105.52 15.71L105.52 15.71Q107.75 11.96 107.75 9.33Q107.75 6.71 106.45 5.45Q105.16 4.19 103.93 4.19L103.93 4.19Q101.41 4.19 101.41 6.78Q101.41 9.37 102.56 11.93Q103.72 14.48 105.52 15.71ZM97.60 19.95L97.60 19.95Q97.60 21.39 99.47 21.39Q101.34 21.39 104.22 17.58L104.22 17.58Q102.28 16.57 100.76 14.05L100.76 14.05Q97.60 17.51 97.60 19.95Z"/><path xml:space="preserve" font-family="Mrs Saint Delafield" font-size="72" style="stroke: none; stroke-width: 0; stroke-dasharray: none; stroke-linecap: butt; stroke-dashoffset: 0; stroke-linejoin: miter; stroke-miterlimit: 4; is-custom-font: none; font-file-url: none; fill: rgb(0,0,0); fill-rule: nonzero; opacity: 1; white-space: pre;" d="M127.69 12.32L127.69 12.32L130.00 8.79Q129.78 8.72 129.56 8.72L129.56 8.72Q126.54 8.72 121.64 13.33Q116.75 17.94 116.75 19.81L116.75 19.81Q116.75 20.31 117.32 20.31L117.32 20.31Q119.12 20.31 122.80 17.25Q126.47 14.19 127.69 12.32ZM143.75 10.81L143.75 10.95Q128.77 23.05 125.60 23.05L125.60 23.05Q124.38 23.05 124.38 21.61Q124.38 20.17 125.46 16.79L125.46 16.79Q125.46 16.71 125.32 16.71L125.32 16.71Q117.04 23.55 114.30 23.55L114.30 23.55Q112.43 23.55 112.43 22.19L112.43 22.19Q112.43 19.16 118.94 13.33Q125.46 7.50 129.35 7.50L129.35 7.50Q129.85 7.50 130.43 8.22L130.43 8.22Q132.08 5.77 149.00-18.35L149.00-18.35Q150.80-20.58 151.92-20.58Q153.04-20.58 153.04-19.86L153.04-19.86Q153.04-18.06 140.65-2.87L140.65-2.87Q136.04 2.89 132.19 9.12Q128.34 15.35 128.34 18.59L128.34 18.59Q128.34 19.95 129.13 19.95L129.13 19.95Q130.07 19.95 132.44 18.30L132.44 18.30Q137.34 14.77 141.01 11.82L141.01 11.82L142.38 10.67Q142.88 10.31 143.32 10.31Q143.75 10.31 143.75 10.81L143.75 10.81Z"/><path xml:space="preserve" font-family="Mrs Saint Delafield" font-size="72" style="stroke: none; stroke-width: 0; stroke-dasharray: none; stroke-linecap: butt; stroke-dashoffset: 0; stroke-linejoin: miter; stroke-miterlimit: 4; is-custom-font: none; font-file-url: none; fill: rgb(0,0,0); fill-rule: nonzero; opacity: 1; white-space: pre;" d="M162.68 12.18L164.48 10.67Q164.99 10.31 165.42 10.31Q165.85 10.31 165.85 10.81L165.85 10.81L165.85 10.95Q158.36 17.15 153.40 20.24Q148.43 23.34 144.40 23.34L144.40 23.34Q141.16 23.34 141.16 20.17L141.16 20.17Q141.16 15.49 145.91 10.56Q150.66 5.63 153.90 5.63L153.90 5.63Q155.70 5.63 155.70 7.64L155.70 7.64Q155.34 11.60 144.32 18.30L144.32 18.30L144.32 19.02Q144.32 21.39 146.81 21.39Q149.29 21.39 152.17 19.74L152.17 19.74Q157.79 16.43 162.68 12.18L162.68 12.18ZM152.03 7.86L152.03 7.86Q150.44 7.86 147.96 10.52Q145.48 13.19 144.61 16.57L144.61 16.57Q148.07 14.48 150.44 12.14Q152.82 9.80 152.82 8.83Q152.82 7.86 152.03 7.86Z"/><path xml:space="preserve" font-family="Mrs Saint Delafield" font-size="72" style="stroke: none; stroke-width: 0; stroke-dasharray: none; stroke-linecap: butt; stroke-dashoffset: 0; stroke-linejoin: miter; stroke-miterlimit: 4; is-custom-font: none; font-file-url: none; fill: rgb(0,0,0); fill-rule: nonzero; opacity: 1; white-space: pre;" d="M182.56 11.89L184.07 10.67Q184.57 10.31 185.00 10.31Q185.44 10.31 185.44 10.81L185.44 10.81L185.44 10.95Q180.04 15.27 174.78 19.05Q169.52 22.83 167.08 22.83L167.08 22.83Q165.28 22.83 165.28 20.89Q165.28 18.95 167.00 17.00Q168.73 15.06 170.42 13.62Q172.12 12.18 172.12 11.71Q172.12 11.24 171.58 10.63Q171.04 10.02 170.68 9.80L170.68 9.80Q169.45 11.03 165.35 14.27L165.35 14.27L165.06 13.19Q169.60 9.59 170.32 8.36L170.32 8.36L170.32 7.71Q170.32 5.91 170.68 5.27Q171.04 4.62 172.40 3.47Q173.77 2.31 174.28 2.31Q174.78 2.31 175.18 2.67Q175.57 3.03 175.57 3.39Q175.57 3.75 175.32 4.22Q175.07 4.69 174.82 5.01Q174.56 5.34 174.13 5.81Q173.70 6.27 173.59 6.45Q173.48 6.63 173.38 7.07Q173.27 7.50 172.91 7.79Q172.55 8.07 172.55 8.51Q172.55 8.94 173.12 10.41Q173.70 11.89 173.70 12.57Q173.70 13.26 171.04 15.81Q168.37 18.37 168.37 19.95L168.37 19.95Q168.37 20.82 169.16 20.82L169.16 20.82Q170.17 20.82 172.91 19.02L172.91 19.02L173.77 18.44Q178.45 15.20 182.56 11.89L182.56 11.89Z"/></g>
</svg>